<?xml version="1.0" standalone="no"?>
<!DOCTYPE svg PUBLIC "-//W3C//DTD SVG 20010904//EN"
 "http://www.w3.org/TR/2001/REC-SVG-20010904/DTD/svg10.dtd">
<svg version="1.0" xmlns="http://www.w3.org/2000/svg"
 width="277.000000pt" height="277.000000pt" viewBox="0 0 277.000000 277.000000"
 preserveAspectRatio="xMidYMid meet">
<metadata>
Created by potrace 1.14, written by Peter Selinger 2001-2017
</metadata>
<g transform="translate(0.000000,277.000000) scale(0.100000,-0.100000)"
fill="#000000" stroke="none">
<path d="M1315 2525 c-167 -38 -275 -169 -277 -334 0 -36 7 -86 15 -110 20
-57 71 -130 111 -161 l33 -24 -17 -31 c-9 -16 -38 -65 -64 -108 -25 -43 -46
-80 -46 -82 0 -3 -62 -110 -90 -155 -10 -16 -90 -156 -126 -220 -11 -20 -37
-64 -56 -96 -20 -33 -46 -77 -58 -99 -43 -77 -142 -245 -145 -245 -1 0 -20 7
-41 16 -63 27 -186 23 -255 -8 -73 -33 -143 -103 -177 -175 -22 -49 -27 -72
-27 -144 0 -74 4 -93 28 -141 138 -273 512 -266 632 12 15 33 20 67 20 135 0
78 -4 98 -28 147 -16 33 -49 76 -77 101 l-49 44 35 57 c19 31 34 59 34 62 0 3
8 17 19 32 18 27 413 710 466 807 42 77 42 77 105 55 70 -24 156 -21 234 9 16
7 30 10 31 9 2 -3 61 -105 183 -318 115 -203 397 -688 404 -697 8 -9 -4 -26
-40 -60 -76 -71 -107 -145 -106 -253 0 -72 4 -94 28 -143 96 -199 340 -261
517 -132 161 117 185 349 53 504 -89 104 -257 146 -378 96 -21 -9 -40 -14 -43
-12 -3 4 -93 157 -158 272 -13 22 -71 123 -131 225 -59 102 -124 214 -144 250
-55 98 -78 138 -123 214 l-40 69 40 36 c99 88 139 215 109 346 -26 116 -151
232 -271 251 -70 11 -79 11 -130 -1z"/>
</g>
</svg>
